<svg width="338" height="121" viewBox="0 0 338 121" fill="none" xmlns="http://www.w3.org/2000/svg">
<path d="M169 0.5C215.644 0.5 257.858 4.47149 288.398 10.8867C303.673 14.0952 316 17.9101 324.497 22.1299C328.746 24.2401 332.011 26.4394 334.208 28.6943C336.403 30.9476 337.5 33.2221 337.5 35.5C337.5 37.7779 336.403 40.0524 334.208 42.3057C332.011 44.5606 328.746 46.7599 324.497 48.8701C316 53.0899 303.673 56.9048 288.398 60.1133C257.858 66.5285 215.644 70.5 169 70.5C122.356 70.5 80.1417 66.5285 49.6016 60.1133C34.3275 56.9048 21.9997 53.0899 13.5029 48.8701C9.25392 46.7599 5.98872 44.5606 3.79199 42.3057C1.59696 40.0524 0.5 37.7779 0.5 35.5C0.5 33.2221 1.59696 30.9476 3.79199 28.6943C5.98872 26.4394 9.25392 24.2401 13.5029 22.1299C21.9997 17.9101 34.3275 14.0952 49.6016 10.8867C80.1417 4.47149 122.356 0.5 169 0.5Z" stroke="black"/>
<path d="M169 25.5C215.644 25.5 257.858 29.4715 288.398 35.8867C303.673 39.0952 316 42.9101 324.497 47.1299C328.746 49.2401 332.011 51.4394 334.208 53.6943C336.403 55.9476 337.5 58.2221 337.5 60.5C337.5 62.7779 336.403 65.0524 334.208 67.3057C332.011 69.5606 328.746 71.7599 324.497 73.8701C316 78.0899 303.673 81.9048 288.398 85.1133C257.858 91.5285 215.644 95.5 169 95.5C122.356 95.5 80.1417 91.5285 49.6016 85.1133C34.3275 81.9048 21.9997 78.0899 13.5029 73.8701C9.25392 71.7599 5.98872 69.5606 3.79199 67.3057C1.59696 65.0524 0.5 62.7779 0.5 60.5C0.5 58.2221 1.59696 55.9476 3.79199 53.6943C5.98872 51.4394 9.25392 49.2401 13.5029 47.1299C21.9997 42.9101 34.3275 39.0952 49.6016 35.8867C80.1417 29.4715 122.356 25.5 169 25.5Z" stroke="black"/>
<path d="M169 50.5C215.644 50.5 257.858 54.4715 288.398 60.8867C303.673 64.0952 316 67.9101 324.497 72.1299C328.746 74.2401 332.011 76.4394 334.208 78.6943C336.403 80.9476 337.5 83.2221 337.5 85.5C337.5 87.7779 336.403 90.0524 334.208 92.3057C332.011 94.5606 328.746 96.7599 324.497 98.8701C316 103.09 303.673 106.905 288.398 110.113C257.858 116.529 215.644 120.5 169 120.5C122.356 120.5 80.1417 116.529 49.6016 110.113C34.3275 106.905 21.9997 103.09 13.5029 98.8701C9.25392 96.7599 5.98872 94.5606 3.79199 92.3057C1.59696 90.0524 0.5 87.7779 0.5 85.5C0.5 83.2221 1.59696 80.9476 3.79199 78.6943C5.98872 76.4394 9.25392 74.2401 13.5029 72.1299C21.9997 67.9101 34.3275 64.0952 49.6016 60.8867C80.1417 54.4715 122.356 50.5 169 50.5Z" stroke="black"/>
</svg>
